HIERARCHY
ROOT Hips
{
	OFFSET 0.000000 89.005402 0.000000
	CHANNELS 6 Xposition Yposition Zposition Xrotation Yrotation Zrotation
	JOINT Spine
	{
		OFFSET 0.116900 10.681000 0.373400
		CHANNELS 3 Xrotation Yrotation Zrotation
		JOINT Spine1
		{
			OFFSET 0.000000 13.840401 0.053500
			CHANNELS 3 Xrotation Yrotation Zrotation
			JOINT Spine2
			{
				OFFSET 0.000000 14.712700 -0.366200
				CHANNELS 3 Xrotation Yrotation Zrotation
				JOINT Neck
				{
					OFFSET 0.000000 35.415497 -3.314200
					CHANNELS 3 Xrotation Yrotation Zrotation
					JOINT Head
					{
						OFFSET 0.000000 16.899200 1.218300
						CHANNELS 3 Xrotation Yrotation Zrotation
						JOINT HeadTop_End
						{
							OFFSET 0.000000 22.206207 2.192500
							CHANNELS 3 Xrotation Yrotation Zrotation
							End Site
							{
								OFFSET 0.000000 22.314178 0.000000
							}
						}
					}
				}
				JOINT LeftShoulder
				{
					OFFSET 12.896400 26.716293 -4.548400
					CHANNELS 3 Xrotation Yrotation Zrotation
					JOINT LeftArm
					{
						OFFSET 19.027000 -4.857010 -1.718400
						CHANNELS 3 Xrotation Yrotation Zrotation
						JOINT LeftForeArm
						{
							OFFSET 24.179897 0.000000 0.000000
							CHANNELS 3 Xrotation Yrotation Zrotation
							JOINT LeftHand
							{
								OFFSET 27.156403 0.000000 0.000000
								CHANNELS 3 Xrotation Yrotation Zrotation
								JOINT LeftHandIndex1
								{
									OFFSET 16.441200 0.000000 0.000000
									CHANNELS 3 Xrotation Yrotation Zrotation
									JOINT LeftHandIndex2
									{
										OFFSET 4.821899 0.000000 0.000000
										CHANNELS 3 Xrotation Yrotation Zrotation
										JOINT LeftHandIndex3
										{
											OFFSET 6.386497 0.000000 0.000000
											CHANNELS 3 Xrotation Yrotation Zrotation
											JOINT LeftHandIndex4
											{
												OFFSET 5.188988 0.000000 0.000000
												CHANNELS 3 Xrotation Yrotation Zrotation
												End Site
												{
													OFFSET -0.178703 5.185913 0.000177
												}
											}
										}
									}
								}
								JOINT LeftHandThumb1
								{
									OFFSET 6.534897 -5.032593 5.900300
									CHANNELS 3 Xrotation Yrotation Zrotation
									JOINT LeftHandThumb2
									{
										OFFSET 3.818176 -2.204422 2.204423
										CHANNELS 3 Xrotation Yrotation Zrotation
										JOINT LeftHandThumb3
										{
											OFFSET 3.252098 -1.877594 1.877601
											CHANNELS 3 Xrotation Yrotation Zrotation
											JOINT LeftHandThumb4
											{
												OFFSET 5.251778 -3.032120 3.032117
												CHANNELS 3 Xrotation Yrotation Zrotation
												End Site
												{
													OFFSET 0.000023 6.780014 0.000000
												}
											}
										}
									}
								}
							}
						}
					}
				}
				JOINT RightShoulder
				{
					OFFSET -12.896300 26.716293 -4.548400
					CHANNELS 3 Xrotation Yrotation Zrotation
					JOINT RightArm
					{
						OFFSET -19.027000 -4.857010 -1.718400
						CHANNELS 3 Xrotation Yrotation Zrotation
						JOINT RightForeArm
						{
							OFFSET -24.179897 0.000000 0.000000
							CHANNELS 3 Xrotation Yrotation Zrotation
							JOINT RightHand
							{
								OFFSET -27.156403 0.000000 0.000000
								CHANNELS 3 Xrotation Yrotation Zrotation
								JOINT RightHandThumb1
								{
									OFFSET -6.591202 -4.852203 5.988100
									CHANNELS 3 Xrotation Yrotation Zrotation
									JOINT RightHandThumb2
									{
										OFFSET -3.818176 -2.204422 2.204423
										CHANNELS 3 Xrotation Yrotation Zrotation
										JOINT RightHandThumb3
										{
											OFFSET -3.252098 -1.877594 1.877601
											CHANNELS 3 Xrotation Yrotation Zrotation
											JOINT RightHandThumb4
											{
												OFFSET -5.251778 -3.032120 3.032117
												CHANNELS 3 Xrotation Yrotation Zrotation
												End Site
												{
													OFFSET -0.000023 6.780014 0.000000
												}
											}
										}
									}
								}
								JOINT RightHandIndex1
								{
									OFFSET -16.029404 0.000000 0.000000
									CHANNELS 3 Xrotation Yrotation Zrotation
									JOINT RightHandIndex2
									{
										OFFSET -5.213303 0.000000 0.000000
										CHANNELS 3 Xrotation Yrotation Zrotation
										JOINT RightHandIndex3
										{
											OFFSET -6.386528 0.000000 0.000000
											CHANNELS 3 Xrotation Yrotation Zrotation
											JOINT RightHandIndex4
											{
												OFFSET -5.189026 0.000000 0.000000
												CHANNELS 3 Xrotation Yrotation Zrotation
												End Site
												{
													OFFSET 0.236702 5.183624 0.001972
												}
											}
										}
									}
								}
							}
						}
					}
				}
			}
		}
	}
	JOINT LeftUpLeg
	{
		OFFSET 14.073000 -7.904099 -1.463000
		CHANNELS 3 Xrotation Yrotation Zrotation
		JOINT LeftLeg
		{
			OFFSET -0.109806 -34.073280 4.093200
			CHANNELS 3 Xrotation Yrotation Zrotation
			JOINT LeftFoot
			{
				OFFSET 0.109806 -29.899420 -6.319000
				CHANNELS 3 Xrotation Yrotation Zrotation
				JOINT LeftToeBase
				{
					OFFSET 1.551100 -14.988700 20.535801
					CHANNELS 3 Xrotation Yrotation Zrotation
					JOINT LeftToe_End
					{
						OFFSET 0.221200 0.570800 13.248301
						CHANNELS 3 Xrotation Yrotation Zrotation
						End Site
						{
							OFFSET 0.000000 13.262435 0.000000
						}
					}
				}
			}
		}
	}
	JOINT RightUpLeg
	{
		OFFSET -13.839300 -7.904099 -1.463000
		CHANNELS 3 Xrotation Yrotation Zrotation
		JOINT RightLeg
		{
			OFFSET 0.109694 -34.073219 4.093300
			CHANNELS 3 Xrotation Yrotation Zrotation
			JOINT RightFoot
			{
				OFFSET -0.109694 -29.899384 -6.319200
				CHANNELS 3 Xrotation Yrotation Zrotation
				JOINT RightToeBase
				{
					OFFSET -1.551100 -14.988700 20.535801
					CHANNELS 3 Xrotation Yrotation Zrotation
					JOINT RightToe_End
					{
						OFFSET -0.221200 0.570900 13.248299
						CHANNELS 3 Xrotation Yrotation Zrotation
						End Site
						{
							OFFSET 0.000000 13.262440 0.000000
						}
					}
				}
			}
		}
	}
}
MOTION
Frames: 5
Frame Time: 0.033333
-2.245527 59.963066 4.013493 35.346659 -42.840541 21.648536 24.896323 1.512345 -7.889832 16.244195 1.503295 -5.954179 20.077780 -7.230984 -6.926287 -25.117056 5.443123 8.068088 -36.588497 32.784205 2.779430 0.000002 -0.000000 -0.000000 3.128524 -11.445647 16.509996 -94.726507 -18.272991 -11.203566 0.000006 -24.994399 0.000003 15.449328 -15.942676 26.125165 10.178106 -7.676493 19.104013 0.110435 1.133329 -11.130802 0.181231 -1.447349 14.273858 0.000002 0.000000 -0.000001 4.081456 -1.251166 -1.216388 6.438212 16.011931 1.668491 -4.386736 25.902388 19.440820 -0.000000 -0.000002 -0.000002 -3.317805 20.877498 3.765300 -16.241246 -43.141247 65.353388 -0.000005 32.890011 -0.000001 -3.590271 26.266116 -16.625807 11.816617 -0.848281 -4.252512 8.014024 -28.592198 -3.153211 -4.617982 -12.589791 -16.206292 0.000003 0.000002 -0.000001 0.714947 0.849795 13.802922 0.108355 -0.999838 12.370635 0.128208 1.086347 -13.460452 -0.000001 -0.000001 0.000002 -77.370532 10.507088 19.267183 116.576945 13.638736 0.483834 -30.210589 13.417871 4.322646 -14.897023 6.200660 -21.204877 0.000000 0.000000 0.000000 -80.739489 -8.220789 14.787725 87.368139 -9.463972 1.141283 -31.989652 -7.344929 -9.153187 -1.692067 0.000017 0.000004 0.000000 0.000002 -0.000000 
-1.779375 60.455482 11.423584 37.796296 -44.458528 24.903611 24.834221 1.336931 -8.631379 16.145368 1.923655 -7.472867 19.732278 -6.854714 -8.439017 -25.092209 5.249335 8.724385 -37.570579 33.007664 3.467924 0.000002 -0.000000 0.000000 3.227704 -11.622015 18.178419 -94.419941 -17.811166 -9.874148 0.000000 -23.623123 0.000002 15.972232 -15.407237 26.319924 10.178106 -7.676492 19.104012 0.110436 1.133326 -11.130800 0.181232 -1.447348 14.273856 -0.000000 0.000001 -0.000000 4.081458 -1.251166 -1.216388 6.438211 16.011929 1.668491 -4.386736 25.902386 19.440822 -0.000001 0.000001 -0.000003 -3.777076 20.972393 5.430917 -17.239123 -40.350668 63.957106 -0.000004 33.996819 -0.000000 -3.985635 27.310018 -19.489777 11.816615 -0.848282 -4.252510 8.014019 -28.592202 -3.153211 -4.617978 -12.589789 -16.206292 -0.000003 -0.000002 -0.000000 0.714947 0.849793 13.802920 0.108358 -0.999835 12.370632 0.128206 1.086346 -13.460448 -0.000002 -0.000001 0.000003 -87.378310 -2.191002 23.445026 106.484234 8.443996 -0.340943 -23.710956 13.083821 7.676737 -6.903183 1.218598 -9.564827 -0.000000 -0.000000 -0.000001 -77.252083 -2.396890 12.143685 90.636310 -8.499201 -0.288331 -39.393304 -8.349438 -5.092706 -1.802243 0.000015 0.000001 0.000000 -0.000001 0.000000 
-1.520187 61.003754 18.529591 40.609494 -45.364621 28.281500 24.576139 1.238570 -9.051019 15.834578 2.123581 -8.552661 19.247114 -6.709239 -9.507879 -25.186444 5.389841 8.738131 -38.339020 33.064379 3.893172 0.000001 -0.000000 -0.000002 3.237418 -11.532514 18.372580 -94.737087 -18.660929 -9.195451 -0.000004 -21.453107 -0.000004 15.682840 -15.116136 26.211332 10.178105 -7.676493 19.104012 0.110434 1.133328 -11.130798 0.181232 -1.447347 14.273860 -0.000000 0.000001 -0.000001 4.081456 -1.251166 -1.216388 6.438212 16.011929 1.668491 -4.386735 25.902388 19.440820 -0.000001 0.000000 0.000002 -3.762531 21.244083 5.271722 -16.952543 -38.578131 64.676332 -0.000007 35.144185 -0.000005 -2.741122 29.243311 -24.207025 11.816614 -0.848280 -4.252515 8.014017 -28.592202 -3.153212 -4.617986 -12.589793 -16.206287 0.000002 0.000000 -0.000001 0.714947 0.849793 13.802919 0.108358 -0.999831 12.370634 0.128204 1.086343 -13.460454 0.000001 -0.000001 0.000003 -91.565345 -10.994476 28.061467 90.964944 4.424553 -1.254974 -19.119984 13.470304 5.565046 -0.796533 0.000009 -0.000004 0.000000 0.000001 -0.000001 -73.228808 3.397504 8.539777 91.562429 -7.172603 -1.683751 -44.906493 -10.172385 -1.136331 -2.925704 -0.000002 -0.000010 -0.000000 0.000001 0.000000 
-1.404123 61.597130 25.539129 43.519711 -45.910110 31.150420 24.137716 1.441409 -9.126454 15.350746 2.220075 -8.932089 18.713578 -6.654627 -9.882678 -25.282570 5.866283 7.994024 -38.671851 33.129430 3.927949 0.000002 -0.000000 -0.000000 3.135708 -11.093727 17.035509 -95.329012 -20.450585 -8.799856 -0.000001 -19.519945 0.000004 14.449735 -14.994709 25.214473 10.178109 -7.676492 19.104013 0.110434 1.133328 -11.130799 0.181232 -1.447350 14.273859 -0.000000 -0.000001 0.000001 4.081458 -1.251165 -1.216388 6.438211 16.011931 1.668491 -4.386736 25.902384 19.440822 -0.000000 -0.000004 0.000000 -3.381385 22.183165 3.499436 -16.229342 -38.075392 66.121688 -0.000009 36.357865 -0.000018 -1.693403 31.229606 -29.516058 11.816616 -0.848282 -4.252512 8.014021 -28.592202 -3.153211 -4.617984 -12.589791 -16.206287 -0.000001 -0.000002 0.000001 0.714946 0.849795 13.802920 0.108357 -0.999838 12.370632 0.128206 1.086341 -13.460454 -0.000000 0.000000 -0.000000 -90.815677 -17.232123 34.118919 71.277696 0.204406 -2.240594 -13.024804 16.962411 -3.466829 -2.773326 -0.000001 -0.000005 -0.000000 -0.000000 0.000001 -67.978940 7.717587 3.388909 89.861220 -6.452613 -2.758773 -48.770310 -11.303606 3.165219 -4.199882 0.000016 0.000004 -0.000000 0.000001 0.000000 
-1.311447 62.224030 32.657700 46.112800 -46.691477 33.091758 23.642230 1.937895 -8.935641 14.866019 2.396462 -8.586957 18.314847 -6.470678 -9.534415 -25.194538 6.574215 6.575964 -38.532082 33.282426 3.516796 0.000000 -0.000000 0.000000 2.966821 -10.307496 14.493824 -95.827930 -22.307207 -8.563814 -0.000000 -18.869157 -0.000001 12.872900 -14.958777 23.065733 10.178105 -7.676491 19.104012 0.110435 1.133328 -11.130801 0.181232 -1.447349 14.273857 -0.000000 -0.000000 -0.000003 4.081456 -1.251167 -1.216387 6.438211 16.011931 1.668491 -4.386736 25.902388 19.440822 0.000001 -0.000004 0.000001 -2.764224 24.051611 0.752446 -15.479159 -38.535514 66.706059 0.000007 37.859807 -0.000003 -3.127943 32.887129 -33.874347 11.816615 -0.848282 -4.252510 8.014022 -28.592203 -3.153208 -4.617984 -12.589789 -16.206287 0.000002 -0.000003 0.000004 0.714948 0.849794 13.802919 0.108355 -0.999835 12.370629 0.128207 1.086345 -13.460454 0.000002 -0.000001 0.000002 -85.714667 -18.464242 37.792301 49.701268 2.879541 -0.403054 -11.848929 21.262574 -7.865222 -3.989774 -0.000000 0.000008 -0.000001 0.000000 -0.000000 -61.511400 10.001183 -2.967910 85.471444 -5.728059 -3.519472 -50.461718 -11.508605 7.911264 -5.273707 -0.000015 0.000010 -0.000001 0.000000 -0.000000 
